<?xml version="1.0" encoding="utf-8"?>
<!-- Generator: Adobe Illustrator 16.0.0, SVG Export Plug-In . SVG Version: 6.00 Build 0)  -->
<!DOCTYPE svg PUBLIC "-//W3C//DTD SVG 1.1//EN" "http://www.w3.org/Graphics/SVG/1.1/DTD/svg11.dtd">
<svg version="1.1"
	 id="Calque_1" xmlns:dc="http://purl.org/dc/elements/1.1/" xmlns:cc="http://creativecommons.org/ns#" xmlns:rdf="http://www.w3.org/1999/02/22-rdf-syntax-ns#" xmlns:inkscape="http://www.inkscape.org/namespaces/inkscape" xmlns:svg="http://www.w3.org/2000/svg" xmlns:sodipodi="http://sodipodi.sourceforge.net/DTD/sodipodi-0.dtd" inkscape:version="0.48.4 r9939" sodipodi:docname="LogoNAFTAL - Copie.svg"
	 xmlns="http://www.w3.org/2000/svg" xmlns:xlink="http://www.w3.org/1999/xlink" x="0px" y="0px" width="1028.948px"
	 height="500.975px" viewBox="-21.958 -28.25 1028.948 500.975" enable-background="new -21.958 -28.25 1028.948 500.975"
	 xml:space="preserve">
<title  id="title3014">Logo de NAFTAL</title>
<sodipodi:namedview  id="namedview33" showgrid="false" borderopacity="1" inkscape:zoom="3.5596935" pagecolor="#ffffff" objecttolerance="10" inkscape:cx="49.301998" gridtolerance="10" guidetolerance="10" bordercolor="#666666" inkscape:cy="21.9795" inkscape:current-layer="Calque_1" inkscape:window-y="0" inkscape:pageopacity="0" inkscape:window-x="0" inkscape:window-width="640" inkscape:pageshadow="2" inkscape:window-height="480" inkscape:window-maximized="0">
	</sodipodi:namedview>
<g id="g3">
	<polygon id="polygon7_1_" fill="transparent" points="1006.99,-28.25 1006.99,472.726 -21.958,472.726 -21.958,-28.25"/>
	<path id="path5" fill="#002866" d="M748.36,146.24c0,109.6-78.398,133.989-131.802,133.989H355.86l31.101-99.392H600.86
		c4.239,0,15.18-6.88,14.239-25.31c-0.631-12.49-8.438-22.5-14.239-22.99H402.06l37.7-120.4h176.799
		C696.67,12.13,748.36,51.64,748.36,146.24z"/>
	<polygon id="polygon7" fill="#002866" points="197.67,179.54 165.46,279.142 57.07,279.142 87.87,179.54 	"/>
	<path id="path9" fill="#002866" d="M416.26,12.13l-95.2,296.2l-11.1,34.5l-12.4,38.601c-13.399,30.291-20.3,39.392-39.7,40.689
		h-245l39.3-127.1h136l89.7-282.9h138.4V12.13L416.26,12.13z"/>
</g>
<g id="g11">
	<path id="path13" fill="#002866" d="M972.29,12.13c7.25,2.76,7.311,10.72,7.25,14.66c-0.1,5.05-2.25,16.23-8.711,18.24H737.25
		c-13.201-16.45-22.81-25.03-47.671-32.9H972.29z"/>
	<path id="path15" fill="#002866" d="M953.329,70.83c6.461,2.19,7.801,10.29,7.729,14.37c-0.1,5.01-2.211,15.63-8.551,18.13H765.139
		c-2.397-12.1-5.969-22.9-10.59-32.5H953.329z"/>
	<path id="path17" fill="#002866" d="M933.85,131.64c7.42,2.32,7.859,11.88,7.38,15.99c-0.609,5.06-2.068,15.4-9.158,18.21h-163.75
		c0.479-6.3,0.67-12.8,0.67-19.6c0-5-0.103-9.9-0.48-14.6H933.85z"/>
	<path id="path19" fill="#002866" d="M912.92,189.14c5,0,7.17,14.17,6.949,19.29c-0.183,3.88,0.01,10.84-6.541,14.11H757.61
		c3.68-9.8,6.608-21,8.68-33.4H912.92z"/>
	<path id="path21" fill="#002866" d="M895.829,242.53c4.9,1.43,6.891,14.147,6.479,19.199c-0.43,5.209-1.58,15.039-9.801,18.5
		H692.719c21.052-1.602,40.511-14.102,54.472-37.699H895.829z"/>
</g>
<g id="g23">
	<polygon id="polygon25" fill="#002866" points="926.67,408.938 921.67,430.83 825.159,430.83 864.36,308.33 899.459,308.33 
		867.271,409.54 	"/>
	<path id="path27" fill="#002866" d="M807.469,308.33l-95.198,84.5l-6.812-0.7l18.699-57.1l20.399-0.5l9.199-26.2h-74.199l-8.6,26.2
		h17.6l-31.6,96.3h56.809l13.302-17.101l47.102,0.398l-5.399,16.7h36.301l39.709-122.5L807.469,308.33L807.469,308.33z
		 M783.17,390.34l-24.9-0.108l29.601-31L783.17,390.34z"/>
	<polygon id="polygon29" fill="#002866" points="616.26,334.54 606.67,366.438 647.469,366.438 640.059,388.938 599.87,388.938 
		587.159,430.83 549.459,430.83 563.17,388.938 570.571,366.438 580.959,334.54 589.571,308.33 666.469,308.33 657.87,334.54 	"/>
	<path id="path31" fill="#002866" d="M536.059,308.33l-85.29,80l23.9-80h-35.9l-22.5,71.601l-32.1-71.601h-30.7l-39.2,122.5h37
		l20.7-64.392l30.7,64.392h40.6l23.802-20.802l39.2,0.802l-7.302,20h35.302l40.198-122.5H536.059z M513.559,388.938h-23.1
		l28.41-26.209L513.559,388.938z"/>
</g>
</svg>
